<svg xmlns="http://www.w3.org/2000/svg" xmlns:xlink="http://www.w3.org/1999/xlink" width="462" zoomAndPan="magnify" viewBox="0 0 346.5 92.249997" height="123" preserveAspectRatio="xMidYMid meet" version="1.2"><defs><clipPath id="25b92be802"><path d="M 32 5.570312 L 84.472656 5.570312 L 84.472656 68 L 32 68 Z M 32 5.570312 "/></clipPath><clipPath id="e42f1c9237"><path d="M 1.148438 23 L 60 23 L 60 88.890625 L 1.148438 88.890625 Z M 1.148438 23 "/></clipPath><clipPath id="dc7c2f061a"><path d="M 1.148438 23 L 48 23 L 48 88.890625 L 1.148438 88.890625 Z M 1.148438 23 "/></clipPath></defs><g id="853f6ec198"><g clip-rule="nonzero" clip-path="url(#25b92be802)"><path style=" stroke:none;fill-rule:nonzero;fill:#ffffff;fill-opacity:1;" d="M 84.179688 5.570312 L 84.179688 67.824219 L 64.167969 67.824219 C 66.886719 65.261719 69.003906 62.210938 70.492188 58.675781 C 71.984375 55.140625 72.746094 51.277344 72.746094 47.085938 C 72.746094 42.839844 72 38.957031 70.492188 35.441406 C 69.003906 31.921875 66.871094 28.875 64.117188 26.292969 C 61.359375 23.710938 58.15625 21.71875 54.480469 20.332031 C 50.808594 18.945312 46.789062 18.253906 42.441406 18.253906 L 32.164062 18.253906 L 32.164062 5.570312 Z M 84.179688 5.570312 "/></g><g clip-rule="nonzero" clip-path="url(#e42f1c9237)"><path style=" stroke:none;fill-rule:nonzero;fill:#ffffff;fill-opacity:1;" d="M 47.671875 75.554688 L 47.671875 88.582031 L 1.148438 88.582031 L 1.148438 23.347656 L 19.34375 23.347656 L 19.34375 75.917969 L 42.613281 75.917969 C 44.347656 75.898438 46.042969 75.796875 47.671875 75.554688 Z M 57.429688 37.605469 C 55.988281 34.992188 53.960938 32.980469 51.378906 31.558594 C 48.800781 30.140625 45.765625 29.429688 42.285156 29.429688 L 32.164062 29.429688 L 32.164062 64.621094 L 42.285156 64.621094 C 45.765625 64.621094 48.816406 63.925781 51.433594 62.539062 C 54.050781 61.15625 56.058594 59.128906 57.480469 56.460938 C 58.902344 53.789062 59.59375 50.636719 59.59375 46.980469 C 59.59375 43.359375 58.867188 40.222656 57.429688 37.605469 Z M 57.429688 37.605469 "/></g><g clip-rule="nonzero" clip-path="url(#dc7c2f061a)"><path style=" stroke:none;fill-rule:nonzero;fill:#ffffff;fill-opacity:1;" d="M 47.671875 75.554688 L 37.710938 88.601562 L 1.148438 88.601562 L 1.148438 41.625 L 19.34375 23.328125 L 19.34375 75.898438 L 42.613281 75.898438 C 44.347656 75.898438 46.042969 75.796875 47.671875 75.554688 Z M 42.285156 29.445312 L 32.164062 29.445312 L 32.164062 42.164062 L 45.664062 29.6875 C 44.589844 29.53125 43.460938 29.445312 42.285156 29.445312 Z M 42.285156 29.445312 "/></g><g style="fill:#ffffff;fill-opacity:1;"><g transform="translate(91.03905, 48.585392)"><path style="stroke:none" d="M 21.8125 0 L 3.109375 0 L 3.109375 -27.9375 L 21.8125 -27.9375 C 29.457031 -27.9375 34.953125 -26.867188 38.296875 -24.734375 C 40.992188 -23.003906 42.53125 -20.648438 42.90625 -17.671875 C 43.082031 -16.390625 43.171875 -15.148438 43.171875 -13.953125 C 43.171875 -12.773438 43.085938 -11.539062 42.921875 -10.25 C 42.753906 -8.957031 42.320312 -7.703125 41.625 -6.484375 C 40.925781 -5.273438 39.8125 -4.179688 38.28125 -3.203125 C 36.757812 -2.234375 34.671875 -1.457031 32.015625 -0.875 C 29.359375 -0.289062 25.957031 0 21.8125 0 Z M 20.703125 -6.90625 C 26.660156 -6.90625 30.023438 -8.410156 30.796875 -11.421875 C 31.003906 -12.265625 31.109375 -13.109375 31.109375 -13.953125 C 31.109375 -14.816406 31 -15.664062 30.78125 -16.5 C 30.570312 -17.332031 30.117188 -18.085938 29.421875 -18.765625 C 28.734375 -19.453125 27.691406 -20 26.296875 -20.40625 C 24.910156 -20.820312 23.046875 -21.03125 20.703125 -21.03125 L 14.84375 -21.03125 L 14.84375 -6.90625 Z M 20.703125 -6.90625 "/></g></g><g style="fill:#ffffff;fill-opacity:1;"><g transform="translate(137.432744, 48.585392)"><path style="stroke:none" d="M 19.640625 0.609375 C 12.828125 0.609375 8.03125 -0.804688 5.25 -3.640625 C 2.914062 -6.015625 1.75 -9.445312 1.75 -13.9375 L 1.75 -27.921875 L 13.46875 -27.921875 L 13.46875 -13.9375 C 13.46875 -11.988281 13.800781 -10.453125 14.46875 -9.328125 C 15.414062 -7.703125 17.140625 -6.890625 19.640625 -6.890625 C 22.171875 -6.890625 23.90625 -7.703125 24.84375 -9.328125 C 25.507812 -10.492188 25.84375 -12.03125 25.84375 -13.9375 L 25.84375 -27.921875 L 37.5625 -27.921875 L 37.5625 -13.78125 C 37.5625 -9.394531 36.398438 -6.015625 34.078125 -3.640625 C 31.285156 -0.804688 26.472656 0.609375 19.640625 0.609375 Z M 19.640625 0.609375 "/></g></g><g style="fill:#ffffff;fill-opacity:1;"><g transform="translate(178.41424, 48.585392)"><path style="stroke:none" d="M 23.15625 0 L 3.109375 0 L 3.109375 -27.921875 L 23.578125 -27.921875 C 27.210938 -27.921875 30.203125 -27.753906 32.546875 -27.421875 C 34.898438 -27.085938 36.710938 -26.566406 37.984375 -25.859375 C 39.253906 -25.160156 40.113281 -24.265625 40.5625 -23.171875 C 41.019531 -22.078125 41.25 -20.769531 41.25 -19.25 C 41.21875 -18.0625 40.890625 -17.070312 40.265625 -16.28125 C 39.648438 -15.5 38.929688 -14.914062 38.109375 -14.53125 C 37.285156 -14.144531 36.5625 -13.953125 35.9375 -13.953125 C 36.550781 -13.953125 37.265625 -13.832031 38.078125 -13.59375 C 38.898438 -13.351562 39.695312 -13.003906 40.46875 -12.546875 C 41.238281 -12.097656 41.878906 -11.550781 42.390625 -10.90625 C 42.910156 -10.257812 43.171875 -9.519531 43.171875 -8.6875 C 43.171875 -7.59375 43.039062 -6.59375 42.78125 -5.6875 C 42.53125 -4.78125 42.023438 -3.972656 41.265625 -3.265625 C 40.503906 -2.566406 39.382812 -1.972656 37.90625 -1.484375 C 36.425781 -1.003906 34.488281 -0.632812 32.09375 -0.375 C 29.695312 -0.125 26.71875 0 23.15625 0 Z M 22.484375 -16.359375 C 24.203125 -16.359375 25.53125 -16.441406 26.46875 -16.609375 C 27.40625 -16.773438 28.054688 -17.03125 28.421875 -17.375 C 28.785156 -17.71875 28.96875 -18.15625 28.96875 -18.6875 C 28.96875 -19.238281 28.785156 -19.6875 28.421875 -20.03125 C 28.054688 -20.375 27.40625 -20.625 26.46875 -20.78125 C 25.53125 -20.945312 24.203125 -21.03125 22.484375 -21.03125 L 14.84375 -21.03125 L 14.84375 -16.359375 Z M 22.484375 -6.890625 C 24.234375 -6.890625 25.65625 -6.9375 26.75 -7.03125 C 27.84375 -7.125 28.640625 -7.332031 29.140625 -7.65625 C 29.648438 -7.976562 29.90625 -8.503906 29.90625 -9.234375 C 29.90625 -9.953125 29.648438 -10.476562 29.140625 -10.8125 C 28.640625 -11.144531 27.84375 -11.351562 26.75 -11.4375 C 25.65625 -11.519531 24.234375 -11.5625 22.484375 -11.5625 L 14.84375 -11.5625 L 14.84375 -6.890625 Z M 22.484375 -6.890625 "/></g></g><g style="fill:#ffffff;fill-opacity:1;"><g transform="translate(224.807934, 48.585392)"><path style="stroke:none" d="M 21.125 0.609375 C 14.21875 0.609375 9.132812 -0.8125 5.875 -3.65625 C 3 -6.175781 1.5625 -9.609375 1.5625 -13.953125 C 1.5625 -18.296875 3 -21.722656 5.875 -24.234375 C 9.132812 -27.078125 14.21875 -28.5 21.125 -28.5 C 28.03125 -28.5 33.113281 -27.078125 36.375 -24.234375 C 39.25 -21.722656 40.6875 -18.296875 40.6875 -13.953125 C 40.6875 -9.609375 39.25 -6.175781 36.375 -3.65625 C 33.113281 -0.8125 28.03125 0.609375 21.125 0.609375 Z M 21.125 -6.890625 C 23.957031 -6.890625 26.035156 -7.703125 27.359375 -9.328125 C 28.421875 -10.640625 28.953125 -12.179688 28.953125 -13.953125 C 28.953125 -15.734375 28.421875 -17.273438 27.359375 -18.578125 C 26.035156 -20.210938 23.957031 -21.03125 21.125 -21.03125 C 18.289062 -21.03125 16.207031 -20.210938 14.875 -18.578125 C 13.8125 -17.273438 13.28125 -15.734375 13.28125 -13.953125 C 13.28125 -12.179688 13.8125 -10.640625 14.875 -9.328125 C 16.207031 -7.703125 18.289062 -6.890625 21.125 -6.890625 Z M 21.125 -6.890625 "/></g></g><g style="fill:#ffffff;fill-opacity:1;"><g transform="translate(268.729149, 48.585392)"><path style="stroke:none" d="M 14.84375 0 L 3.109375 0 L 3.109375 -27.9375 L 14.84375 -27.9375 Z M 14.84375 0 "/></g></g><g style="fill:#ffffff;fill-opacity:1;"><g transform="translate(288.35388, 48.585392)"><path style="stroke:none" d="M 18.453125 0.609375 C 14.679688 0.609375 11.640625 0.203125 9.328125 -0.609375 C 7.015625 -1.421875 5.253906 -2.535156 4.046875 -3.953125 C 2.835938 -5.378906 2.023438 -7.019531 1.609375 -8.875 L 14.0625 -8.875 C 14.976562 -7.550781 16.441406 -6.890625 18.453125 -6.890625 C 20.460938 -6.890625 21.929688 -7.550781 22.859375 -8.875 C 22.929688 -9.007812 22.96875 -9.128906 22.96875 -9.234375 C 22.96875 -9.578125 22.503906 -9.835938 21.578125 -10.015625 C 20.648438 -10.191406 19.265625 -10.328125 17.421875 -10.421875 C 15.097656 -10.523438 12.660156 -10.769531 10.109375 -11.15625 C 4.410156 -12.039062 1.5625 -14.332031 1.5625 -18.03125 C 1.5625 -18.34375 1.578125 -18.671875 1.609375 -19.015625 C 2.023438 -20.878906 2.835938 -22.519531 4.046875 -23.9375 C 5.253906 -25.363281 7.015625 -26.476562 9.328125 -27.28125 C 11.640625 -28.09375 14.679688 -28.5 18.453125 -28.5 C 22.234375 -28.5 25.28125 -28.09375 27.59375 -27.28125 C 29.90625 -26.476562 31.660156 -25.363281 32.859375 -23.9375 C 34.066406 -22.519531 34.878906 -20.878906 35.296875 -19.015625 L 22.859375 -19.015625 C 21.929688 -20.347656 20.460938 -21.015625 18.453125 -21.015625 C 16.441406 -21.015625 14.976562 -20.347656 14.0625 -19.015625 C 13.988281 -18.910156 13.953125 -18.816406 13.953125 -18.734375 C 13.953125 -18.421875 14.394531 -18.1875 15.28125 -18.03125 C 16.175781 -17.882812 17.488281 -17.757812 19.21875 -17.65625 C 20.957031 -17.550781 22.804688 -17.378906 24.765625 -17.140625 C 26.722656 -16.910156 28.554688 -16.503906 30.265625 -15.921875 C 31.972656 -15.347656 33.304688 -14.5 34.265625 -13.375 C 35.015625 -12.507812 35.390625 -11.40625 35.390625 -10.0625 C 35.390625 -9.6875 35.359375 -9.289062 35.296875 -8.875 C 34.878906 -7.019531 34.066406 -5.378906 32.859375 -3.953125 C 31.660156 -2.535156 29.90625 -1.421875 27.59375 -0.609375 C 25.28125 0.203125 22.234375 0.609375 18.453125 0.609375 Z M 18.453125 0.609375 "/></g></g><g style="fill:#ffffff;fill-opacity:1;"><g transform="translate(91.579598, 76.835372)"><path style="stroke:none" d="M 7.171875 0.34375 C 5.734375 0.34375 4.546875 0.03125 3.609375 -0.59375 C 2.679688 -1.226562 1.992188 -2.070312 1.546875 -3.125 C 1.109375 -4.175781 0.890625 -5.335938 0.890625 -6.609375 C 0.890625 -7.890625 1.132812 -9.050781 1.625 -10.09375 C 2.113281 -11.132812 2.882812 -11.960938 3.9375 -12.578125 C 4.988281 -13.203125 6.335938 -13.515625 7.984375 -13.515625 C 9.453125 -13.515625 10.648438 -13.3125 11.578125 -12.90625 C 12.503906 -12.5 13.195312 -11.929688 13.65625 -11.203125 C 14.125 -10.484375 14.394531 -9.65625 14.46875 -8.71875 L 11.421875 -8.71875 C 11.328125 -9.476562 11 -10.070312 10.4375 -10.5 C 9.882812 -10.9375 9.0625 -11.15625 7.96875 -11.15625 C 6.644531 -11.15625 5.660156 -10.785156 5.015625 -10.046875 C 4.367188 -9.304688 4.046875 -8.148438 4.046875 -6.578125 C 4.046875 -5.097656 4.34375 -3.972656 4.9375 -3.203125 C 5.539062 -2.429688 6.503906 -2.046875 7.828125 -2.046875 C 8.703125 -2.046875 9.398438 -2.179688 9.921875 -2.453125 C 10.441406 -2.722656 10.828125 -3.085938 11.078125 -3.546875 C 11.328125 -4.015625 11.492188 -4.519531 11.578125 -5.0625 L 6.875 -5.0625 L 6.875 -7.015625 L 14.453125 -7.015625 L 14.453125 0 L 11.875 0 L 11.875 -2.53125 C 11.707031 -2.019531 11.429688 -1.546875 11.046875 -1.109375 C 10.660156 -0.671875 10.148438 -0.316406 9.515625 -0.046875 C 8.890625 0.210938 8.109375 0.34375 7.171875 0.34375 Z M 7.171875 0.34375 "/></g></g><g style="fill:#ffffff;fill-opacity:1;"><g transform="translate(109.428249, 76.835372)"><path style="stroke:none" d="M 12.109375 -3.21875 L 12.109375 -2.3125 C 12.109375 -1.769531 12.132812 -1.328125 12.1875 -0.984375 C 12.25 -0.640625 12.3125 -0.3125 12.375 0 L 9.359375 0 C 9.273438 -0.238281 9.207031 -0.539062 9.15625 -0.90625 C 9.113281 -1.28125 9.09375 -1.738281 9.09375 -2.28125 L 9.09375 -2.96875 C 9.09375 -3.707031 8.890625 -4.242188 8.484375 -4.578125 C 8.085938 -4.921875 7.5625 -5.09375 6.90625 -5.09375 L 4.1875 -5.09375 L 4.1875 0 L 1.15625 0 L 1.15625 -13.1875 L 8.109375 -13.1875 C 9.566406 -13.1875 10.65625 -12.851562 11.375 -12.1875 C 12.101562 -11.519531 12.46875 -10.648438 12.46875 -9.578125 C 12.46875 -8.648438 12.203125 -7.882812 11.671875 -7.28125 C 11.148438 -6.6875 10.5 -6.300781 9.71875 -6.125 C 10.164062 -6.019531 10.570312 -5.859375 10.9375 -5.640625 C 11.300781 -5.421875 11.585938 -5.117188 11.796875 -4.734375 C 12.003906 -4.347656 12.109375 -3.84375 12.109375 -3.21875 Z M 7.4375 -7.25 C 8.125 -7.25 8.609375 -7.410156 8.890625 -7.734375 C 9.171875 -8.066406 9.3125 -8.535156 9.3125 -9.140625 C 9.3125 -9.691406 9.160156 -10.113281 8.859375 -10.40625 C 8.566406 -10.695312 8.09375 -10.84375 7.4375 -10.84375 L 4.1875 -10.84375 L 4.1875 -7.25 Z M 7.4375 -7.25 "/></g></g><g style="fill:#ffffff;fill-opacity:1;"><g transform="translate(124.976514, 76.835372)"><path style="stroke:none" d="M 1.09375 -4.9375 L 1.09375 -13.1875 L 4.109375 -13.1875 L 4.109375 -5.359375 C 4.109375 -4.503906 4.21875 -3.84375 4.4375 -3.375 C 4.65625 -2.90625 4.976562 -2.582031 5.40625 -2.40625 C 5.832031 -2.226562 6.367188 -2.140625 7.015625 -2.140625 C 7.660156 -2.140625 8.195312 -2.226562 8.625 -2.40625 C 9.0625 -2.582031 9.390625 -2.90625 9.609375 -3.375 C 9.828125 -3.84375 9.9375 -4.503906 9.9375 -5.359375 L 9.9375 -13.1875 L 12.921875 -13.1875 L 12.921875 -4.9375 C 12.921875 -3.21875 12.425781 -1.910156 11.4375 -1.015625 C 10.457031 -0.128906 8.984375 0.3125 7.015625 0.3125 C 5.046875 0.3125 3.566406 -0.128906 2.578125 -1.015625 C 1.585938 -1.910156 1.09375 -3.21875 1.09375 -4.9375 Z M 1.09375 -4.9375 "/></g></g><g style="fill:#ffffff;fill-opacity:1;"><g transform="translate(141.159368, 76.835372)"><path style="stroke:none" d="M 8.15625 -13.1875 C 9.15625 -13.1875 9.957031 -12.992188 10.5625 -12.609375 C 11.175781 -12.222656 11.625 -11.707031 11.90625 -11.0625 C 12.1875 -10.425781 12.328125 -9.726562 12.328125 -8.96875 C 12.328125 -8.15625 12.1875 -7.414062 11.90625 -6.75 C 11.625 -6.09375 11.175781 -5.566406 10.5625 -5.171875 C 9.957031 -4.785156 9.15625 -4.59375 8.15625 -4.59375 L 4.1875 -4.59375 L 4.1875 0 L 1.15625 0 L 1.15625 -13.1875 Z M 7.203125 -6.9375 C 7.941406 -6.9375 8.457031 -7.128906 8.75 -7.515625 C 9.050781 -7.898438 9.203125 -8.375 9.203125 -8.9375 C 9.203125 -9.5 9.054688 -9.957031 8.765625 -10.3125 C 8.472656 -10.664062 7.957031 -10.84375 7.21875 -10.84375 L 4.1875 -10.84375 L 4.1875 -6.9375 Z M 7.203125 -6.9375 "/></g></g><g style="fill:#ffffff;fill-opacity:1;"><g transform="translate(156.251518, 76.835372)"><path style="stroke:none" d="M 7.859375 0.34375 C 6.585938 0.34375 5.507812 0.15625 4.625 -0.21875 C 3.738281 -0.601562 3.019531 -1.113281 2.46875 -1.75 C 1.914062 -2.394531 1.515625 -3.132812 1.265625 -3.96875 C 1.015625 -4.800781 0.890625 -5.671875 0.890625 -6.578125 C 0.890625 -7.484375 1.015625 -8.347656 1.265625 -9.171875 C 1.515625 -9.992188 1.914062 -10.734375 2.46875 -11.390625 C 3.019531 -12.046875 3.738281 -12.5625 4.625 -12.9375 C 5.507812 -13.320312 6.585938 -13.515625 7.859375 -13.515625 C 9.117188 -13.515625 10.1875 -13.320312 11.0625 -12.9375 C 11.945312 -12.5625 12.660156 -12.046875 13.203125 -11.390625 C 13.753906 -10.734375 14.15625 -9.992188 14.40625 -9.171875 C 14.664062 -8.347656 14.796875 -7.484375 14.796875 -6.578125 C 14.796875 -5.671875 14.664062 -4.800781 14.40625 -3.96875 C 14.15625 -3.144531 13.753906 -2.410156 13.203125 -1.765625 C 12.660156 -1.117188 11.945312 -0.601562 11.0625 -0.21875 C 10.1875 0.15625 9.117188 0.34375 7.859375 0.34375 Z M 4.046875 -6.578125 C 4.046875 -5.628906 4.160156 -4.820312 4.390625 -4.15625 C 4.617188 -3.5 5.007812 -3 5.5625 -2.65625 C 6.125 -2.3125 6.890625 -2.140625 7.859375 -2.140625 C 8.816406 -2.140625 9.570312 -2.3125 10.125 -2.65625 C 10.6875 -3 11.082031 -3.5 11.3125 -4.15625 C 11.539062 -4.820312 11.65625 -5.628906 11.65625 -6.578125 C 11.65625 -7.554688 11.539062 -8.375 11.3125 -9.03125 C 11.082031 -9.695312 10.6875 -10.203125 10.125 -10.546875 C 9.570312 -10.890625 8.816406 -11.0625 7.859375 -11.0625 C 6.890625 -11.0625 6.125 -10.890625 5.5625 -10.546875 C 5.007812 -10.203125 4.617188 -9.695312 4.390625 -9.03125 C 4.160156 -8.375 4.046875 -7.554688 4.046875 -6.578125 Z M 4.046875 -6.578125 "/></g></g><g style="fill:#ffffff;fill-opacity:1;"><g transform="translate(174.100169, 76.835372)"><path style="stroke:none" d=""/></g></g><g style="fill:#ffffff;fill-opacity:1;"><g transform="translate(181.279796, 76.835372)"><path style="stroke:none" d="M 7.796875 0.34375 C 6.546875 0.34375 5.484375 0.160156 4.609375 -0.203125 C 3.742188 -0.578125 3.035156 -1.085938 2.484375 -1.734375 C 1.941406 -2.378906 1.539062 -3.113281 1.28125 -3.9375 C 1.019531 -4.769531 0.890625 -5.648438 0.890625 -6.578125 C 0.890625 -7.492188 1.019531 -8.367188 1.28125 -9.203125 C 1.539062 -10.035156 1.941406 -10.773438 2.484375 -11.421875 C 3.035156 -12.066406 3.75 -12.578125 4.625 -12.953125 C 5.507812 -13.328125 6.570312 -13.515625 7.8125 -13.515625 C 9.332031 -13.515625 10.5625 -13.304688 11.5 -12.890625 C 12.445312 -12.484375 13.160156 -11.867188 13.640625 -11.046875 C 14.117188 -10.222656 14.40625 -9.210938 14.5 -8.015625 L 11.40625 -8.015625 C 11.3125 -8.992188 11 -9.742188 10.46875 -10.265625 C 9.9375 -10.796875 9.066406 -11.0625 7.859375 -11.0625 C 6.535156 -11.0625 5.566406 -10.679688 4.953125 -9.921875 C 4.347656 -9.171875 4.046875 -8.054688 4.046875 -6.578125 C 4.046875 -5.128906 4.332031 -4.023438 4.90625 -3.265625 C 5.476562 -2.515625 6.425781 -2.140625 7.75 -2.140625 C 9.019531 -2.140625 9.929688 -2.410156 10.484375 -2.953125 C 11.046875 -3.503906 11.363281 -4.296875 11.4375 -5.328125 L 14.546875 -5.328125 C 14.460938 -4.066406 14.179688 -3.015625 13.703125 -2.171875 C 13.234375 -1.328125 12.519531 -0.695312 11.5625 -0.28125 C 10.601562 0.132812 9.347656 0.34375 7.796875 0.34375 Z M 7.796875 0.34375 "/></g></g><g style="fill:#ffffff;fill-opacity:1;"><g transform="translate(198.791321, 76.835372)"><path style="stroke:none" d="M 7.859375 0.34375 C 6.585938 0.34375 5.507812 0.15625 4.625 -0.21875 C 3.738281 -0.601562 3.019531 -1.113281 2.46875 -1.75 C 1.914062 -2.394531 1.515625 -3.132812 1.265625 -3.96875 C 1.015625 -4.800781 0.890625 -5.671875 0.890625 -6.578125 C 0.890625 -7.484375 1.015625 -8.347656 1.265625 -9.171875 C 1.515625 -9.992188 1.914062 -10.734375 2.46875 -11.390625 C 3.019531 -12.046875 3.738281 -12.5625 4.625 -12.9375 C 5.507812 -13.320312 6.585938 -13.515625 7.859375 -13.515625 C 9.117188 -13.515625 10.1875 -13.320312 11.0625 -12.9375 C 11.945312 -12.5625 12.660156 -12.046875 13.203125 -11.390625 C 13.753906 -10.734375 14.15625 -9.992188 14.40625 -9.171875 C 14.664062 -8.347656 14.796875 -7.484375 14.796875 -6.578125 C 14.796875 -5.671875 14.664062 -4.800781 14.40625 -3.96875 C 14.15625 -3.144531 13.753906 -2.410156 13.203125 -1.765625 C 12.660156 -1.117188 11.945312 -0.601562 11.0625 -0.21875 C 10.1875 0.15625 9.117188 0.34375 7.859375 0.34375 Z M 4.046875 -6.578125 C 4.046875 -5.628906 4.160156 -4.820312 4.390625 -4.15625 C 4.617188 -3.5 5.007812 -3 5.5625 -2.65625 C 6.125 -2.3125 6.890625 -2.140625 7.859375 -2.140625 C 8.816406 -2.140625 9.570312 -2.3125 10.125 -2.65625 C 10.6875 -3 11.082031 -3.5 11.3125 -4.15625 C 11.539062 -4.820312 11.65625 -5.628906 11.65625 -6.578125 C 11.65625 -7.554688 11.539062 -8.375 11.3125 -9.03125 C 11.082031 -9.695312 10.6875 -10.203125 10.125 -10.546875 C 9.570312 -10.890625 8.816406 -11.0625 7.859375 -11.0625 C 6.890625 -11.0625 6.125 -10.890625 5.5625 -10.546875 C 5.007812 -10.203125 4.617188 -9.695312 4.390625 -9.03125 C 4.160156 -8.375 4.046875 -7.554688 4.046875 -6.578125 Z M 4.046875 -6.578125 "/></g></g><g style="fill:#ffffff;fill-opacity:1;"><g transform="translate(216.639971, 76.835372)"><path style="stroke:none" d="M 11.03125 -13.1875 L 13.921875 -13.1875 L 13.921875 0 L 8.921875 0 L 4.796875 -9 C 4.648438 -9.34375 4.515625 -9.679688 4.390625 -10.015625 C 4.265625 -10.359375 4.148438 -10.695312 4.046875 -11.03125 L 4.046875 0 L 1.15625 0 L 1.15625 -13.1875 L 6.140625 -13.1875 L 10.3125 -4.046875 C 10.425781 -3.765625 10.546875 -3.460938 10.671875 -3.140625 C 10.796875 -2.816406 10.914062 -2.484375 11.03125 -2.140625 Z M 11.03125 -13.1875 "/></g></g><g style="fill:#ffffff;fill-opacity:1;"><g transform="translate(233.873865, 76.835372)"><path style="stroke:none" d="M 0.765625 -4.34375 L 3.703125 -4.34375 C 3.742188 -3.644531 4 -3.0625 4.46875 -2.59375 C 4.9375 -2.132812 5.691406 -1.90625 6.734375 -1.90625 C 7.742188 -1.90625 8.441406 -2.0625 8.828125 -2.375 C 9.210938 -2.695312 9.40625 -3.117188 9.40625 -3.640625 C 9.40625 -4.597656 8.816406 -5.15625 7.640625 -5.3125 L 4.71875 -5.6875 C 3.550781 -5.832031 2.648438 -6.222656 2.015625 -6.859375 C 1.390625 -7.492188 1.078125 -8.351562 1.078125 -9.4375 C 1.078125 -10.625 1.523438 -11.597656 2.421875 -12.359375 C 3.328125 -13.128906 4.707031 -13.515625 6.5625 -13.515625 C 7.882812 -13.515625 8.953125 -13.320312 9.765625 -12.9375 C 10.585938 -12.5625 11.203125 -12.050781 11.609375 -11.40625 C 12.015625 -10.769531 12.242188 -10.0625 12.296875 -9.28125 L 9.34375 -9.28125 C 9.257812 -9.90625 8.992188 -10.394531 8.546875 -10.75 C 8.097656 -11.113281 7.4375 -11.296875 6.5625 -11.296875 C 5.757812 -11.296875 5.148438 -11.144531 4.734375 -10.84375 C 4.316406 -10.539062 4.109375 -10.128906 4.109375 -9.609375 C 4.109375 -9.234375 4.226562 -8.910156 4.46875 -8.640625 C 4.71875 -8.378906 5.113281 -8.21875 5.65625 -8.15625 L 8.40625 -7.8125 C 11.09375 -7.507812 12.4375 -6.222656 12.4375 -3.953125 C 12.4375 -3.085938 12.242188 -2.332031 11.859375 -1.6875 C 11.472656 -1.039062 10.859375 -0.539062 10.015625 -0.1875 C 9.179688 0.164062 8.078125 0.34375 6.703125 0.34375 C 5.617188 0.34375 4.703125 0.210938 3.953125 -0.046875 C 3.203125 -0.304688 2.597656 -0.65625 2.140625 -1.09375 C 1.691406 -1.539062 1.359375 -2.046875 1.140625 -2.609375 C 0.921875 -3.171875 0.796875 -3.75 0.765625 -4.34375 Z M 0.765625 -4.34375 "/></g></g><g style="fill:#ffffff;fill-opacity:1;"><g transform="translate(249.283309, 76.835372)"><path style="stroke:none" d="M 1.09375 -4.9375 L 1.09375 -13.1875 L 4.109375 -13.1875 L 4.109375 -5.359375 C 4.109375 -4.503906 4.21875 -3.84375 4.4375 -3.375 C 4.65625 -2.90625 4.976562 -2.582031 5.40625 -2.40625 C 5.832031 -2.226562 6.367188 -2.140625 7.015625 -2.140625 C 7.660156 -2.140625 8.195312 -2.226562 8.625 -2.40625 C 9.0625 -2.582031 9.390625 -2.90625 9.609375 -3.375 C 9.828125 -3.84375 9.9375 -4.503906 9.9375 -5.359375 L 9.9375 -13.1875 L 12.921875 -13.1875 L 12.921875 -4.9375 C 12.921875 -3.21875 12.425781 -1.910156 11.4375 -1.015625 C 10.457031 -0.128906 8.984375 0.3125 7.015625 0.3125 C 5.046875 0.3125 3.566406 -0.128906 2.578125 -1.015625 C 1.585938 -1.910156 1.09375 -3.21875 1.09375 -4.9375 Z M 1.09375 -4.9375 "/></g></g><g style="fill:#ffffff;fill-opacity:1;"><g transform="translate(265.466162, 76.835372)"><path style="stroke:none" d="M 4.1875 -2.40625 L 10.34375 -2.40625 L 10.34375 0 L 1.15625 0 L 1.15625 -13.1875 L 4.1875 -13.1875 Z M 4.1875 -2.40625 "/></g></g><g style="fill:#ffffff;fill-opacity:1;"><g transform="translate(278.357085, 76.835372)"><path style="stroke:none" d="M 12.359375 -13.1875 L 12.359375 -10.8125 L 8.015625 -10.8125 L 8.015625 0 L 5 0 L 5 -10.8125 L 0.65625 -10.8125 L 0.65625 -13.1875 Z M 12.359375 -13.1875 "/></g></g><g style="fill:#ffffff;fill-opacity:1;"><g transform="translate(293.528572, 76.835372)"><path style="stroke:none" d="M 7.859375 0.34375 C 6.585938 0.34375 5.507812 0.15625 4.625 -0.21875 C 3.738281 -0.601562 3.019531 -1.113281 2.46875 -1.75 C 1.914062 -2.394531 1.515625 -3.132812 1.265625 -3.96875 C 1.015625 -4.800781 0.890625 -5.671875 0.890625 -6.578125 C 0.890625 -7.484375 1.015625 -8.347656 1.265625 -9.171875 C 1.515625 -9.992188 1.914062 -10.734375 2.46875 -11.390625 C 3.019531 -12.046875 3.738281 -12.5625 4.625 -12.9375 C 5.507812 -13.320312 6.585938 -13.515625 7.859375 -13.515625 C 9.117188 -13.515625 10.1875 -13.320312 11.0625 -12.9375 C 11.945312 -12.5625 12.660156 -12.046875 13.203125 -11.390625 C 13.753906 -10.734375 14.15625 -9.992188 14.40625 -9.171875 C 14.664062 -8.347656 14.796875 -7.484375 14.796875 -6.578125 C 14.796875 -5.671875 14.664062 -4.800781 14.40625 -3.96875 C 14.15625 -3.144531 13.753906 -2.410156 13.203125 -1.765625 C 12.660156 -1.117188 11.945312 -0.601562 11.0625 -0.21875 C 10.1875 0.15625 9.117188 0.34375 7.859375 0.34375 Z M 4.046875 -6.578125 C 4.046875 -5.628906 4.160156 -4.820312 4.390625 -4.15625 C 4.617188 -3.5 5.007812 -3 5.5625 -2.65625 C 6.125 -2.3125 6.890625 -2.140625 7.859375 -2.140625 C 8.816406 -2.140625 9.570312 -2.3125 10.125 -2.65625 C 10.6875 -3 11.082031 -3.5 11.3125 -4.15625 C 11.539062 -4.820312 11.65625 -5.628906 11.65625 -6.578125 C 11.65625 -7.554688 11.539062 -8.375 11.3125 -9.03125 C 11.082031 -9.695312 10.6875 -10.203125 10.125 -10.546875 C 9.570312 -10.890625 8.816406 -11.0625 7.859375 -11.0625 C 6.890625 -11.0625 6.125 -10.890625 5.5625 -10.546875 C 5.007812 -10.203125 4.617188 -9.695312 4.390625 -9.03125 C 4.160156 -8.375 4.046875 -7.554688 4.046875 -6.578125 Z M 4.046875 -6.578125 "/></g></g><g style="fill:#ffffff;fill-opacity:1;"><g transform="translate(311.377212, 76.835372)"><path style="stroke:none" d="M 12.109375 -3.21875 L 12.109375 -2.3125 C 12.109375 -1.769531 12.132812 -1.328125 12.1875 -0.984375 C 12.25 -0.640625 12.3125 -0.3125 12.375 0 L 9.359375 0 C 9.273438 -0.238281 9.207031 -0.539062 9.15625 -0.90625 C 9.113281 -1.28125 9.09375 -1.738281 9.09375 -2.28125 L 9.09375 -2.96875 C 9.09375 -3.707031 8.890625 -4.242188 8.484375 -4.578125 C 8.085938 -4.921875 7.5625 -5.09375 6.90625 -5.09375 L 4.1875 -5.09375 L 4.1875 0 L 1.15625 0 L 1.15625 -13.1875 L 8.109375 -13.1875 C 9.566406 -13.1875 10.65625 -12.851562 11.375 -12.1875 C 12.101562 -11.519531 12.46875 -10.648438 12.46875 -9.578125 C 12.46875 -8.648438 12.203125 -7.882812 11.671875 -7.28125 C 11.148438 -6.6875 10.5 -6.300781 9.71875 -6.125 C 10.164062 -6.019531 10.570312 -5.859375 10.9375 -5.640625 C 11.300781 -5.421875 11.585938 -5.117188 11.796875 -4.734375 C 12.003906 -4.347656 12.109375 -3.84375 12.109375 -3.21875 Z M 7.4375 -7.25 C 8.125 -7.25 8.609375 -7.410156 8.890625 -7.734375 C 9.171875 -8.066406 9.3125 -8.535156 9.3125 -9.140625 C 9.3125 -9.691406 9.160156 -10.113281 8.859375 -10.40625 C 8.566406 -10.695312 8.09375 -10.84375 7.4375 -10.84375 L 4.1875 -10.84375 L 4.1875 -7.25 Z M 7.4375 -7.25 "/></g></g></g></svg>